<mxfile host="Electron" modified="2023-12-31T00:20:13.676Z" agent="Mozilla/5.0 (Windows NT 10.0; Win64; x64) AppleWebKit/537.36 (KHTML, like Gecko) draw.io/22.1.16 Chrome/120.0.6099.109 Electron/28.1.0 Safari/537.36" etag="Onvz0TVEAwG2EOK4nVpm" version="22.1.16" type="device">
  <diagram name="Page-1" id="3FU2BRUodX3esNhyQgwJ">
    <mxGraphModel dx="674" dy="463" grid="1" gridSize="10" guides="1" tooltips="1" connect="1" arrows="1" fold="1" page="1" pageScale="1" pageWidth="850" pageHeight="1100" math="0" shadow="0">
      <root>
        <mxCell id="0" />
        <mxCell id="1" parent="0" />
        <mxCell id="Rr48j6R8bM0mg8fOzwoo-1" value="内存 Memory" style="swimlane;whiteSpace=wrap;html=1;startSize=30;fillColor=#ffe6cc;strokeColor=#d79b00;" parent="1" vertex="1">
          <mxGeometry x="320" y="160" width="160" height="312" as="geometry" />
        </mxCell>
        <mxCell id="F_gYWv8rL4ZoQy9qiymJ-1" value="0x7ffc4bf38377" style="rounded=0;whiteSpace=wrap;html=1;fillColor=#b1ddf0;strokeColor=#10739e;fontFamily=consolas;" parent="Rr48j6R8bM0mg8fOzwoo-1" vertex="1">
          <mxGeometry x="1" y="250" width="158" height="21" as="geometry" />
        </mxCell>
        <mxCell id="F_gYWv8rL4ZoQy9qiymJ-2" value="&lt;div&gt;0x7ffc4bf38378&lt;/div&gt;" style="rounded=0;whiteSpace=wrap;html=1;fillColor=#b1ddf0;strokeColor=#10739e;fontFamily=consolas;fontStyle=1" parent="Rr48j6R8bM0mg8fOzwoo-1" vertex="1">
          <mxGeometry x="1" y="231" width="158" height="20" as="geometry" />
        </mxCell>
        <mxCell id="F_gYWv8rL4ZoQy9qiymJ-3" value="0x7ffc4bf38379" style="rounded=0;whiteSpace=wrap;html=1;fillColor=#b1ddf0;strokeColor=#10739e;fontFamily=consolas;fontStyle=1" parent="Rr48j6R8bM0mg8fOzwoo-1" vertex="1">
          <mxGeometry x="1" y="211" width="158" height="20" as="geometry" />
        </mxCell>
        <mxCell id="F_gYWv8rL4ZoQy9qiymJ-4" value="0x7ffc4bf3837a" style="rounded=0;whiteSpace=wrap;html=1;fillColor=#b1ddf0;strokeColor=#10739e;fontFamily=consolas;fontStyle=1" parent="Rr48j6R8bM0mg8fOzwoo-1" vertex="1">
          <mxGeometry x="1" y="191" width="158" height="20" as="geometry" />
        </mxCell>
        <mxCell id="F_gYWv8rL4ZoQy9qiymJ-5" value="0x7ffc4bf3837b" style="rounded=0;whiteSpace=wrap;html=1;fillColor=#b1ddf0;strokeColor=#10739e;fontFamily=consolas;fontStyle=1" parent="Rr48j6R8bM0mg8fOzwoo-1" vertex="1">
          <mxGeometry x="1" y="171" width="158" height="20" as="geometry" />
        </mxCell>
        <mxCell id="F_gYWv8rL4ZoQy9qiymJ-6" value="0x7ffc4bf3837c" style="rounded=0;whiteSpace=wrap;html=1;fillColor=#b1ddf0;strokeColor=#10739e;fontFamily=consolas;fontStyle=0" parent="Rr48j6R8bM0mg8fOzwoo-1" vertex="1">
          <mxGeometry x="1" y="151" width="158" height="20" as="geometry" />
        </mxCell>
        <mxCell id="F_gYWv8rL4ZoQy9qiymJ-7" value="0x7ffc4bf3837d" style="rounded=0;whiteSpace=wrap;html=1;fillColor=#b1ddf0;strokeColor=#10739e;fontFamily=consolas;fontStyle=0" parent="Rr48j6R8bM0mg8fOzwoo-1" vertex="1">
          <mxGeometry x="1" y="131" width="158" height="20" as="geometry" />
        </mxCell>
        <mxCell id="F_gYWv8rL4ZoQy9qiymJ-8" value="0x7ffc4bf3837e" style="rounded=0;whiteSpace=wrap;html=1;fillColor=#b1ddf0;strokeColor=#10739e;fontFamily=consolas;fontStyle=0" parent="Rr48j6R8bM0mg8fOzwoo-1" vertex="1">
          <mxGeometry x="1" y="111" width="158" height="20" as="geometry" />
        </mxCell>
        <mxCell id="F_gYWv8rL4ZoQy9qiymJ-9" value="0x7ffc4bf3837f" style="rounded=0;whiteSpace=wrap;html=1;fillColor=#b1ddf0;strokeColor=#10739e;fontFamily=consolas;fontStyle=0" parent="Rr48j6R8bM0mg8fOzwoo-1" vertex="1">
          <mxGeometry x="1" y="91" width="158" height="20" as="geometry" />
        </mxCell>
        <mxCell id="F_gYWv8rL4ZoQy9qiymJ-10" value="0x7ffc4bf38380" style="rounded=0;whiteSpace=wrap;html=1;fillColor=#b1ddf0;strokeColor=#10739e;fontFamily=consolas;" parent="Rr48j6R8bM0mg8fOzwoo-1" vertex="1">
          <mxGeometry x="1" y="71" width="158" height="20" as="geometry" />
        </mxCell>
        <mxCell id="F_gYWv8rL4ZoQy9qiymJ-11" value="0x7ffc4bf38381" style="rounded=0;whiteSpace=wrap;html=1;fillColor=#b1ddf0;strokeColor=#10739e;fontFamily=consolas;" parent="Rr48j6R8bM0mg8fOzwoo-1" vertex="1">
          <mxGeometry x="1" y="51" width="158" height="20" as="geometry" />
        </mxCell>
        <mxCell id="F_gYWv8rL4ZoQy9qiymJ-12" value="... ..." style="rounded=0;whiteSpace=wrap;html=1;fillColor=#b1ddf0;strokeColor=#10739e;fontFamily=consolas;" parent="Rr48j6R8bM0mg8fOzwoo-1" vertex="1">
          <mxGeometry x="1" y="31" width="158" height="20" as="geometry" />
        </mxCell>
        <mxCell id="F_gYWv8rL4ZoQy9qiymJ-14" value="0x7ffc4bf38376" style="rounded=0;whiteSpace=wrap;html=1;fillColor=#b1ddf0;strokeColor=#10739e;fontFamily=consolas;" parent="Rr48j6R8bM0mg8fOzwoo-1" vertex="1">
          <mxGeometry x="1" y="271" width="158" height="20" as="geometry" />
        </mxCell>
        <mxCell id="F_gYWv8rL4ZoQy9qiymJ-15" value="... ..." style="rounded=0;whiteSpace=wrap;html=1;fillColor=#b1ddf0;strokeColor=#10739e;fontFamily=consolas;" parent="Rr48j6R8bM0mg8fOzwoo-1" vertex="1">
          <mxGeometry x="1" y="291" width="158" height="20" as="geometry" />
        </mxCell>
        <mxCell id="F_gYWv8rL4ZoQy9qiymJ-17" style="edgeStyle=orthogonalEdgeStyle;rounded=0;orthogonalLoop=1;jettySize=auto;html=1;" parent="1" source="F_gYWv8rL4ZoQy9qiymJ-16" target="F_gYWv8rL4ZoQy9qiymJ-2" edge="1">
          <mxGeometry relative="1" as="geometry" />
        </mxCell>
        <mxCell id="F_gYWv8rL4ZoQy9qiymJ-16" value="&lt;font face=&quot;consolas&quot;&gt;&amp;amp;f - 1&lt;/font&gt;" style="text;html=1;strokeColor=none;fillColor=none;align=center;verticalAlign=middle;whiteSpace=wrap;rounded=0;" parent="1" vertex="1">
          <mxGeometry x="240" y="386" width="43" height="30" as="geometry" />
        </mxCell>
        <mxCell id="F_gYWv8rL4ZoQy9qiymJ-20" value="float型数据&lt;br&gt;占4个字节" style="text;html=1;strokeColor=none;fillColor=none;align=center;verticalAlign=middle;whiteSpace=wrap;rounded=0;" parent="1" vertex="1">
          <mxGeometry x="500" y="352.5" width="65" height="35" as="geometry" />
        </mxCell>
        <mxCell id="40I9CQWJ52id2wygrKVK-2" value="&lt;font face=&quot;consolas&quot;&gt;&amp;amp;f&lt;/font&gt;" style="text;html=1;strokeColor=none;fillColor=none;align=center;verticalAlign=middle;whiteSpace=wrap;rounded=0;" vertex="1" parent="1">
          <mxGeometry x="240" y="306" width="43" height="30" as="geometry" />
        </mxCell>
        <mxCell id="40I9CQWJ52id2wygrKVK-3" style="edgeStyle=orthogonalEdgeStyle;rounded=0;orthogonalLoop=1;jettySize=auto;html=1;" edge="1" source="40I9CQWJ52id2wygrKVK-2" parent="1" target="F_gYWv8rL4ZoQy9qiymJ-6">
          <mxGeometry relative="1" as="geometry">
            <mxPoint x="321" y="321" as="targetPoint" />
          </mxGeometry>
        </mxCell>
        <mxCell id="40I9CQWJ52id2wygrKVK-4" style="edgeStyle=orthogonalEdgeStyle;rounded=0;orthogonalLoop=1;jettySize=auto;html=1;" edge="1" source="40I9CQWJ52id2wygrKVK-5" parent="1">
          <mxGeometry relative="1" as="geometry">
            <mxPoint x="321" y="241" as="targetPoint" />
          </mxGeometry>
        </mxCell>
        <mxCell id="40I9CQWJ52id2wygrKVK-5" value="&lt;font face=&quot;consolas&quot;&gt;&amp;amp;f + 1&lt;/font&gt;" style="text;html=1;strokeColor=none;fillColor=none;align=center;verticalAlign=middle;whiteSpace=wrap;rounded=0;" vertex="1" parent="1">
          <mxGeometry x="240" y="226" width="43" height="30" as="geometry" />
        </mxCell>
        <mxCell id="40I9CQWJ52id2wygrKVK-6" value="" style="shape=curlyBracket;whiteSpace=wrap;html=1;rounded=1;flipH=1;labelPosition=right;verticalLabelPosition=middle;align=left;verticalAlign=middle;" vertex="1" parent="1">
          <mxGeometry x="480" y="330" width="20" height="80" as="geometry" />
        </mxCell>
        <mxCell id="40I9CQWJ52id2wygrKVK-7" value="float型数据&lt;br&gt;占4个字节" style="text;html=1;strokeColor=none;fillColor=none;align=center;verticalAlign=middle;whiteSpace=wrap;rounded=0;" vertex="1" parent="1">
          <mxGeometry x="500" y="272.5" width="65" height="35" as="geometry" />
        </mxCell>
        <mxCell id="40I9CQWJ52id2wygrKVK-8" value="" style="shape=curlyBracket;whiteSpace=wrap;html=1;rounded=1;flipH=1;labelPosition=right;verticalLabelPosition=middle;align=left;verticalAlign=middle;" vertex="1" parent="1">
          <mxGeometry x="480" y="250" width="20" height="80" as="geometry" />
        </mxCell>
      </root>
    </mxGraphModel>
  </diagram>
</mxfile>
